<svg xmlns="http://www.w3.org/2000/svg" enable-background="new 0 0 64 64" viewBox="0 0 64 64" id="planet"><path fill="#fbdda1" d="M63.21,39.18c-0.24,0.28-0.54,0.54-0.9,0.75L38.53,54.51c-1.54,0.84-3.31,1.2-5.04,0.97l-11.25-1.41
					c-1.48-0.21-3.16,0.13-4.52,0.68L9.33,40.21c1.26-0.84,2.56-1.62,3.88-2.35c5.61-3,10.38-1.9,12.91-0.86
					c1.47,0.63,3.11,0.87,4.67,0.52l9.81-1.46c1.26-0.18,2.48,0.35,3.19,1.33c0.25,0.33,0.42,0.72,0.54,1.16
					c0.1,0.36,0.21,0.88,0.17,1.33l13.74-5.84c2.26-0.87,4.29-0.4,5.31,1.32C64.27,36.63,64.09,38.14,63.21,39.18z"></path><path fill="#f4d298" d="M63.21 39.18c-.24.28-.54.54-.9.75L38.53 54.51c-1.54.84-3.31 1.2-5.04.97l-11.25-1.41c-1.48-.21-3.16.13-4.52.68l-.55-.97c1.48-.5 3.79-1.06 5.07-.88l11.25 1.41c1.74.23 3.5-.13 5.04-.97l23.79-14.59c.35-.2.66-.46.9-.75.38-.44.63-.98.73-1.53C64.11 37.44 63.85 38.43 63.21 39.18zM44.44 40.23c-.2 1.2-1.15 2.25-2.4 2.6l-9.86 2.95-.94-.83 10.32-3.05c1.25-.36 2.2-1.41 2.4-2.61.17-.52.03-1.2-.09-1.67-.02-.06-.03-.12-.05-.17.23.32.39.7.51 1.12C44.46 39.02 44.61 39.71 44.44 40.23z"></path><rect width="2.6" height="19.33" x="11.32" y="38.05" fill="#e9e8e8" transform="rotate(-29.969 12.614 47.719)"></rect><rect width="22.12" height="7.41" x="-2.32" y="46.41" fill="#93cdbd" transform="rotate(-120 8.736 50.111)"></rect><g><path fill="#7ca2c1" d="M21.07,15.94c0.07-0.74,0.2-1.47,0.38-2.22c0.19-0.74,0.42-1.45,0.71-2.13c0.32-0.77,0.71-1.5,1.14-2.19
				c3.35-5.29,9.82-8.09,16.22-6.48s10.78,7.14,11.22,13.38c0.05,0.81,0.05,1.64-0.03,2.47c-0.07,0.74-0.2,1.47-0.38,2.22
				c-0.19,0.74-0.42,1.45-0.71,2.13l-1.14,2.19c-3.34,5.29-9.82,8.09-16.22,6.48c-6.4-1.61-10.77-7.13-11.22-13.38L21.07,15.94z"></path><path fill="#355471" d="M50.71,18.76c2.08,1.17,3.23,2.25,3.02,3.07c-0.21,0.82-1.72,1.24-4.11,1.28c-3.48,0.06-8.8-0.67-14.64-2.14
				c-5.84-1.47-10.88-3.34-13.91-5.04c-2.08-1.17-3.23-2.25-3.02-3.07c0.21-0.82,1.73-1.24,4.11-1.28l1.14-2.19
				c-6.35-0.53-10.74,0.11-11.21,1.97c-0.47,1.87,3.1,4.51,8.94,7.04c3.72,1.61,8.36,3.17,13.47,4.46c5.11,1.29,9.94,2.1,13.97,2.44
				c6.35,0.53,10.74-0.11,11.21-1.97c0.47-1.87-3.1-4.51-8.94-7.04L50.71,18.76z"></path></g></svg>